<svg width="25" height="22" viewBox="0 0 25 22" fill="none" xmlns="http://www.w3.org/2000/svg">
<path d="M24.5346 10.7672C23.5671 8.72871 22.4156 7.06623 21.0803 5.77974L19.6799 7.18018C20.8219 8.27153 21.8166 9.69923 22.6767 11.4773C20.3867 16.217 17.136 18.4685 12.6936 18.4685C11.3601 18.4685 10.1319 18.2632 9.00888 17.8525L7.49146 19.37C9.05118 20.0902 10.7852 20.4503 12.6936 20.4503C17.9838 20.4503 21.9308 17.6951 24.5346 12.1847C24.6393 11.9631 24.6936 11.721 24.6936 11.4759C24.6936 11.2308 24.6393 10.9888 24.5346 10.7672V10.7672ZM22.7849 1.94172L21.6115 0.766973C21.5911 0.7465 21.5668 0.730259 21.5401 0.719178C21.5133 0.708096 21.4847 0.702393 21.4557 0.702393C21.4268 0.702393 21.3982 0.708096 21.3714 0.719178C21.3447 0.730259 21.3204 0.7465 21.3 0.766973L18.2896 3.77595C16.6299 2.9282 14.7645 2.50432 12.6936 2.50432C7.40338 2.50432 3.45636 5.25952 0.852545 10.7699C0.747884 10.9915 0.693604 11.2336 0.693604 11.4787C0.693604 11.7238 0.747884 11.9658 0.852545 12.1874C1.89279 14.3784 3.14515 16.1345 4.60964 17.4559L1.697 20.3677C1.65573 20.409 1.63255 20.465 1.63255 20.5234C1.63255 20.5818 1.65573 20.6377 1.697 20.679L2.87202 21.8541C2.91331 21.8953 2.96929 21.9185 3.02767 21.9185C3.08604 21.9185 3.14203 21.8953 3.18332 21.8541L22.7849 2.2533C22.8054 2.23285 22.8216 2.20856 22.8327 2.18183C22.8438 2.1551 22.8495 2.12645 22.8495 2.09751C22.8495 2.06857 22.8438 2.03992 22.8327 2.01319C22.8216 1.98645 22.8054 1.96217 22.7849 1.94172ZM2.71045 11.4773C5.00324 6.73759 8.25389 4.48608 12.6936 4.48608C14.1948 4.48608 15.5597 4.74371 16.798 5.26751L14.8631 7.20248C13.9467 6.71354 12.8974 6.53208 11.8701 6.68487C10.8427 6.83765 9.89166 7.31659 9.15722 8.05104C8.42278 8.78548 7.94383 9.73653 7.79105 10.7639C7.63826 11.7912 7.81972 12.8405 8.30866 13.7569L6.01256 16.053C4.74176 14.9314 3.64628 13.4117 2.71045 11.4773ZM9.50075 11.4773C9.50123 10.992 9.61619 10.5136 9.8363 10.081C10.0564 9.64841 10.3754 9.27385 10.7675 8.98774C11.1596 8.70164 11.6136 8.51204 12.0927 8.43437C12.5718 8.3567 13.0625 8.39314 13.5248 8.54072L9.6469 12.4186C9.5497 12.1143 9.5004 11.7968 9.50075 11.4773V11.4773Z" fill="white"/>
<path d="M12.5834 14.5599C12.4882 14.5599 12.3944 14.5555 12.3013 14.547L10.8475 16.0008C11.7219 16.3357 12.6746 16.4101 13.5904 16.2151C14.5062 16.02 15.346 15.5639 16.0081 14.9018C16.6702 14.2397 17.1263 13.4 17.3214 12.4841C17.5164 11.5683 17.442 10.6156 17.1071 9.74118L15.6533 11.195C15.6618 11.2881 15.6662 11.3819 15.6662 11.4772C15.6664 11.882 15.5868 12.283 15.432 12.6571C15.2771 13.0312 15.0501 13.3712 14.7638 13.6575C14.4775 13.9438 14.1375 14.1708 13.7634 14.3257C13.3893 14.4805 12.9883 14.5601 12.5834 14.5599V14.5599Z" fill="white"/>
</svg>
